<svg width="110" height="150" viewBox="0 0 98 142" fill="none" xmlns="http://www.w3.org/2000/svg">
<path fill-rule="evenodd" clip-rule="evenodd" d="M2.90269 4.50241C2.94064 4.22889 2.74966 3.9764 2.47614 3.93845C2.20262 3.9005 1.95012 4.09148 1.91218 4.365C-0.629034 22.6827 0.776791 51.101 13.26 76.8648C25.7556 102.654 49.3436 125.762 91.0972 133.403C91.3688 133.453 91.6293 133.273 91.679 133.001C91.7287 132.729 91.5488 132.469 91.2772 132.419C49.8594 124.84 26.5268 101.952 14.16 76.4287C1.7808 50.8797 0.382428 22.6691 2.90269 4.50241ZM97.2099 134.384L97.6992 134.14L97.438 133.691L94.1111 127.974C93.9758 127.741 93.6674 127.668 93.4222 127.809C93.177 127.951 93.0879 128.254 93.2232 128.487L96.2889 133.755L90.5474 136.617C90.2941 136.744 90.1853 137.042 90.3045 137.283C90.4238 137.524 90.7258 137.617 90.9792 137.491L97.2099 134.384Z" fill="#C6BFD9"/>
</svg>
