<svg width="116" height="131" viewBox="0 0 116 131" fill="none" xmlns="http://www.w3.org/2000/svg">
<path fill-rule="evenodd" clip-rule="evenodd" d="M2.65838 1.57799C2.66525 1.02575 2.22313 0.572497 1.67089 0.56563C1.11865 0.558762 0.665402 1.00088 0.658535 1.55312C0.413971 21.2194 5.67441 51.0063 22.2744 76.5318C38.8104 101.959 66.5796 123.118 111.198 125.823L106.479 128.809C106.001 129.111 105.843 129.728 106.126 130.186C106.409 130.643 107.026 130.769 107.504 130.467L114.323 126.152L115.389 125.477L114.554 124.617L109.208 119.11C108.834 118.723 108.197 118.726 107.787 119.116C107.377 119.506 107.348 120.135 107.723 120.521L110.906 123.801C67.2075 121.032 40.1157 100.297 23.9511 75.4414C7.61132 50.3161 2.41761 20.9394 2.65838 1.57799Z" fill="#C6BFD9"/>
</svg>
