<svg width="21" height="25" viewBox="0 0 16 20" fill="none" xmlns="http://www.w3.org/2000/svg">
<path d="M8.33343 20C9.43343 20 10.3334 19.1 10.3334 18H6.33343C6.33343 19.1 7.22343 20 8.33343 20ZM14.3334 14V9C14.3334 5.93 12.6934 3.36 9.83343 2.68V2C9.83343 1.17 9.16343 0.5 8.33343 0.5C7.50343 0.5 6.83343 1.17 6.83343 2V2.68C3.96343 3.36 2.33343 5.92 2.33343 9V14L1.04343 15.29C0.413425 15.92 0.853425 17 1.74343 17H14.9134C15.8034 17 16.2534 15.92 15.6234 15.29L14.3334 14Z" fill="#FD8776"/>
</svg>
