<svg width="25" height="23" viewBox="0 0 21 18" fill="none" xmlns="http://www.w3.org/2000/svg">
<path d="M5.16663 18H1.66663C1.11663 18 0.666626 17.55 0.666626 17V7C0.666626 6.45 1.11663 6 1.66663 6H5.16663C5.71663 6 6.16663 6.45 6.16663 7V17C6.16663 17.55 5.71663 18 5.16663 18ZM12.4166 0H8.91663C8.36663 0 7.91663 0.45 7.91663 1V17C7.91663 17.55 8.36663 18 8.91663 18H12.4166C12.9666 18 13.4166 17.55 13.4166 17V1C13.4166 0.45 12.9666 0 12.4166 0ZM19.6666 8H16.1666C15.6166 8 15.1666 8.45 15.1666 9V17C15.1666 17.55 15.6166 18 16.1666 18H19.6666C20.2166 18 20.6666 17.55 20.6666 17V9C20.6666 8.45 20.2166 8 19.6666 8Z" fill="#FD8776"/>
</svg>
