<svg width="16" height="16" viewBox="0 0 16 16" fill="none" xmlns="http://www.w3.org/2000/svg">
<path d="M0.5 6.3334V9.66674C0.5 10.1251 0.875 10.5001 1.33333 10.5001H3.83333L6.575 13.2417C7.1 13.7667 8 13.3917 8 12.6501V3.34174C8 2.60007 7.1 2.22507 6.575 2.75007L3.83333 5.50007H1.33333C0.875 5.50007 0.5 5.87507 0.5 6.3334ZM11.75 8.00007C11.75 6.52507 10.9 5.2584 9.66667 4.64174V11.3501C10.9 10.7417 11.75 9.47507 11.75 8.00007ZM9.66667 1.7084V1.87507C9.66667 2.19174 9.875 2.46674 10.1667 2.5834C12.3167 3.44174 13.8333 5.55007 13.8333 8.00007C13.8333 10.4501 12.3167 12.5584 10.1667 13.4167C9.86667 13.5334 9.66667 13.8084 9.66667 14.1251V14.2917C9.66667 14.8167 10.1917 15.1834 10.675 15.0001C13.5 13.9251 15.5 11.2001 15.5 8.00007C15.5 4.80007 13.5 2.07507 10.675 1.00007C10.1917 0.808404 9.66667 1.1834 9.66667 1.7084V1.7084Z" fill="#FD8776"/>
</svg>
